<svg width="101" height="101" viewBox="0 0 101 101" fill="none" xmlns="http://www.w3.org/2000/svg">
<g opacity="0.1">
<circle cx="50.5" cy="50.5" r="50" fill="#F02A78"/>
<circle cx="50.5" cy="50.5" r="50" stroke="#F02A78"/>
</g>
<g clip-path="url(#clip0_1_476)">
<path d="M31.8333 69.6667H70.1666" stroke="black" stroke-miterlimit="10" stroke-linecap="round" stroke-linejoin="round"/>
<path d="M38.5 61.3333H33.5V69.6667H38.5V61.3333Z" stroke="black" stroke-miterlimit="10" stroke-linecap="round" stroke-linejoin="round"/>
<path d="M48.5 53H43.5V69.6667H48.5V53Z" stroke="black" stroke-miterlimit="10" stroke-linecap="round" stroke-linejoin="round"/>
<path d="M58.5 56.3333H53.5V69.6667H58.5V56.3333Z" stroke="black" stroke-miterlimit="10" stroke-linecap="round" stroke-linejoin="round"/>
<path d="M68.5 44.6667H63.5V69.6667H68.5V44.6667Z" stroke="black" stroke-miterlimit="10" stroke-linecap="round" stroke-linejoin="round"/>
<path d="M35.9999 51.3333C36.9204 51.3333 37.6666 50.5871 37.6666 49.6667C37.6666 48.7462 36.9204 48 35.9999 48C35.0794 48 34.3333 48.7462 34.3333 49.6667C34.3333 50.5871 35.0794 51.3333 35.9999 51.3333Z" stroke="black" stroke-miterlimit="10" stroke-linecap="round" stroke-linejoin="round"/>
<path d="M45.9999 43C46.9204 43 47.6666 42.2538 47.6666 41.3333C47.6666 40.4128 46.9204 39.6667 45.9999 39.6667C45.0794 39.6667 44.3333 40.4128 44.3333 41.3333C44.3333 42.2538 45.0794 43 45.9999 43Z" stroke="black" stroke-miterlimit="10" stroke-linecap="round" stroke-linejoin="round"/>
<path d="M55.9999 46.3333C56.9204 46.3333 57.6666 45.5871 57.6666 44.6667C57.6666 43.7462 56.9204 43 55.9999 43C55.0794 43 54.3333 43.7462 54.3333 44.6667C54.3333 45.5871 55.0794 46.3333 55.9999 46.3333Z" stroke="black" stroke-miterlimit="10" stroke-linecap="round" stroke-linejoin="round"/>
<path d="M65.9999 34.6667C66.9204 34.6667 67.6666 33.9205 67.6666 33C67.6666 32.0795 66.9204 31.3333 65.9999 31.3333C65.0794 31.3333 64.3333 32.0795 64.3333 33C64.3333 33.9205 65.0794 34.6667 65.9999 34.6667Z" stroke="black" stroke-miterlimit="10" stroke-linecap="round" stroke-linejoin="round"/>
<path d="M37.3333 48.6667L44.6666 42.3334" stroke="black" stroke-miterlimit="10" stroke-linecap="round" stroke-linejoin="round"/>
<path d="M47.5 41.8332L54.5 44.1665" stroke="black" stroke-miterlimit="10" stroke-linejoin="round"/>
<path d="M64.8332 34.3332L57.1665 43.3332" stroke="black" stroke-miterlimit="10" stroke-linecap="round" stroke-linejoin="round"/>
</g>
<defs>
<clipPath id="clip0_1_476">
<rect width="40" height="40" fill="white" transform="translate(31 30.5)"/>
</clipPath>
</defs>
</svg>
