<svg width="442" height="227" viewBox="0 0 442 227" fill="none" xmlns="http://www.w3.org/2000/svg">
<path d="M441.413 226.949H0.586938C0.43157 226.949 0.282723 226.887 0.17302 226.778C0.0633168 226.668 0.00170898 226.519 0.00170898 226.365C0.00170898 226.21 0.0633168 226.061 0.17302 225.952C0.282723 225.842 0.43157 225.78 0.586938 225.78H441.413C441.568 225.78 441.717 225.842 441.827 225.952C441.937 226.061 441.998 226.21 441.998 226.365C441.998 226.519 441.937 226.668 441.827 226.778C441.717 226.887 441.568 226.949 441.413 226.949Z" fill="#3F3D56"/>
<path d="M138.195 28.2096C139.956 28.2096 141.383 26.7878 141.383 25.034C141.383 23.2802 139.956 21.8584 138.195 21.8584C136.435 21.8584 135.007 23.2802 135.007 25.034C135.007 26.7878 136.435 28.2096 138.195 28.2096Z" fill="#F2F2F2"/>
<path d="M125.491 28.2096C127.251 28.2096 128.678 26.7878 128.678 25.034C128.678 23.2802 127.251 21.8584 125.491 21.8584C123.73 21.8584 122.303 23.2802 122.303 25.034C122.303 26.7878 123.73 28.2096 125.491 28.2096Z" fill="#F2F2F2"/>
<path d="M112.786 28.2096C114.547 28.2096 115.974 26.7878 115.974 25.034C115.974 23.2802 114.547 21.8584 112.786 21.8584C111.026 21.8584 109.598 23.2802 109.598 25.034C109.598 26.7878 111.026 28.2096 112.786 28.2096Z" fill="#F2F2F2"/>
<path d="M100.082 28.2096C101.842 28.2096 103.269 26.7878 103.269 25.034C103.269 23.2802 101.842 21.8584 100.082 21.8584C98.321 21.8584 96.8938 23.2802 96.8938 25.034C96.8938 26.7878 98.321 28.2096 100.082 28.2096Z" fill="#9179FF"/>
<path d="M138.195 41.468C139.956 41.468 141.383 40.0462 141.383 38.2924C141.383 36.5386 139.956 35.1168 138.195 35.1168C136.435 35.1168 135.007 36.5386 135.007 38.2924C135.007 40.0462 136.435 41.468 138.195 41.468Z" fill="#F2F2F2"/>
<path d="M125.491 41.468C127.251 41.468 128.678 40.0462 128.678 38.2924C128.678 36.5386 127.251 35.1168 125.491 35.1168C123.73 35.1168 122.303 36.5386 122.303 38.2924C122.303 40.0462 123.73 41.468 125.491 41.468Z" fill="#F2F2F2"/>
<path d="M112.786 41.468C114.547 41.468 115.974 40.0462 115.974 38.2924C115.974 36.5386 114.547 35.1168 112.786 35.1168C111.026 35.1168 109.598 36.5386 109.598 38.2924C109.598 40.0462 111.026 41.468 112.786 41.468Z" fill="#9179FF"/>
<path d="M100.082 41.468C101.842 41.468 103.269 40.0462 103.269 38.2924C103.269 36.5386 101.842 35.1168 100.082 35.1168C98.321 35.1168 96.8938 36.5386 96.8938 38.2924C96.8938 40.0462 98.321 41.468 100.082 41.468Z" fill="#F2F2F2"/>
<path d="M138.195 54.7264C139.956 54.7264 141.383 53.3047 141.383 51.5508C141.383 49.797 139.956 48.3752 138.195 48.3752C136.435 48.3752 135.007 49.797 135.007 51.5508C135.007 53.3047 136.435 54.7264 138.195 54.7264Z" fill="#F2F2F2"/>
<path d="M125.491 54.7264C127.251 54.7264 128.678 53.3047 128.678 51.5508C128.678 49.797 127.251 48.3752 125.491 48.3752C123.73 48.3752 122.303 49.797 122.303 51.5508C122.303 53.3047 123.73 54.7264 125.491 54.7264Z" fill="#9179FF"/>
<path d="M112.786 54.7264C114.547 54.7264 115.974 53.3047 115.974 51.5508C115.974 49.797 114.547 48.3752 112.786 48.3752C111.026 48.3752 109.598 49.797 109.598 51.5508C109.598 53.3047 111.026 54.7264 112.786 54.7264Z" fill="#F2F2F2"/>
<path d="M100.082 54.7264C101.842 54.7264 103.269 53.3047 103.269 51.5508C103.269 49.797 101.842 48.3752 100.082 48.3752C98.321 48.3752 96.8938 49.797 96.8938 51.5508C96.8938 53.3047 98.321 54.7264 100.082 54.7264Z" fill="#F2F2F2"/>
<path d="M138.195 67.985C139.956 67.985 141.383 66.5632 141.383 64.8094C141.383 63.0555 139.956 61.6338 138.195 61.6338C136.435 61.6338 135.007 63.0555 135.007 64.8094C135.007 66.5632 136.435 67.985 138.195 67.985Z" fill="#9179FF"/>
<path d="M125.491 67.985C127.251 67.985 128.678 66.5632 128.678 64.8094C128.678 63.0555 127.251 61.6338 125.491 61.6338C123.73 61.6338 122.303 63.0555 122.303 64.8094C122.303 66.5632 123.73 67.985 125.491 67.985Z" fill="#F2F2F2"/>
<path d="M112.786 67.985C114.547 67.985 115.974 66.5632 115.974 64.8094C115.974 63.0555 114.547 61.6338 112.786 61.6338C111.026 61.6338 109.598 63.0555 109.598 64.8094C109.598 66.5632 111.026 67.985 112.786 67.985Z" fill="#F2F2F2"/>
<path d="M100.082 67.985C101.842 67.985 103.269 66.5632 103.269 64.8094C103.269 63.0555 101.842 61.6338 100.082 61.6338C98.321 61.6338 96.8938 63.0555 96.8938 64.8094C96.8938 66.5632 98.321 67.985 100.082 67.985Z" fill="#F2F2F2"/>
<path d="M138.195 81.2434C139.956 81.2434 141.383 79.8216 141.383 78.0678C141.383 76.314 139.956 74.8922 138.195 74.8922C136.435 74.8922 135.007 76.314 135.007 78.0678C135.007 79.8216 136.435 81.2434 138.195 81.2434Z" fill="#F2F2F2"/>
<path d="M125.491 81.2434C127.251 81.2434 128.678 79.8216 128.678 78.0678C128.678 76.314 127.251 74.8922 125.491 74.8922C123.73 74.8922 122.303 76.314 122.303 78.0678C122.303 79.8216 123.73 81.2434 125.491 81.2434Z" fill="#F2F2F2"/>
<path d="M112.786 81.2434C114.547 81.2434 115.974 79.8216 115.974 78.0678C115.974 76.314 114.547 74.8922 112.786 74.8922C111.026 74.8922 109.598 76.314 109.598 78.0678C109.598 79.8216 111.026 81.2434 112.786 81.2434Z" fill="#F2F2F2"/>
<path d="M100.082 81.2434C101.842 81.2434 103.269 79.8216 103.269 78.0678C103.269 76.314 101.842 74.8922 100.082 74.8922C98.321 74.8922 96.8938 76.314 96.8938 78.0678C96.8938 79.8216 98.321 81.2434 100.082 81.2434Z" fill="#F2F2F2"/>
<path d="M138.195 94.5018C139.956 94.5018 141.383 93.08 141.383 91.3262C141.383 89.5724 139.956 88.1506 138.195 88.1506C136.435 88.1506 135.007 89.5724 135.007 91.3262C135.007 93.08 136.435 94.5018 138.195 94.5018Z" fill="#F2F2F2"/>
<path d="M125.491 94.5018C127.251 94.5018 128.678 93.08 128.678 91.3262C128.678 89.5724 127.251 88.1506 125.491 88.1506C123.73 88.1506 122.303 89.5724 122.303 91.3262C122.303 93.08 123.73 94.5018 125.491 94.5018Z" fill="#F2F2F2"/>
<path d="M112.786 94.5018C114.547 94.5018 115.974 93.08 115.974 91.3262C115.974 89.5724 114.547 88.1506 112.786 88.1506C111.026 88.1506 109.598 89.5724 109.598 91.3262C109.598 93.08 111.026 94.5018 112.786 94.5018Z" fill="#F2F2F2"/>
<path d="M100.082 94.5018C101.842 94.5018 103.269 93.08 103.269 91.3262C103.269 89.5724 101.842 88.1506 100.082 88.1506C98.321 88.1506 96.8938 89.5724 96.8938 91.3262C96.8938 93.08 98.321 94.5018 100.082 94.5018Z" fill="#F2F2F2"/>
<path d="M110.184 177.958V178.94C110.186 180.567 110.835 182.128 111.99 183.278C113.146 184.429 114.712 185.076 116.346 185.078H160.71C162.344 185.077 163.91 184.43 165.066 183.279C166.221 182.128 166.871 180.567 166.871 178.94V177.958C166.874 176.521 166.368 175.13 165.442 174.029C165.133 173.664 164.784 173.334 164.402 173.047C164.402 173.047 140.011 172.497 140.011 171.819H116.346C114.712 171.822 113.146 172.469 111.991 173.62C110.836 174.77 110.186 176.33 110.184 177.958Z" fill="#CCCCCC"/>
<path d="M142.089 184.834H135.68V226.082H142.089V184.834Z" fill="#CCCCCC"/>
<path d="M160.327 225.858C160.327 226.548 150.617 226.125 138.638 226.125C126.659 226.125 116.949 226.548 116.949 225.858C116.949 225.168 126.659 219.699 138.638 219.699C150.616 219.699 160.327 225.168 160.327 225.858Z" fill="#CCCCCC"/>
<path d="M151.517 177.125C151.979 176.506 152.3 175.794 152.457 175.039C152.613 174.284 152.602 173.503 152.423 172.753C152.244 172.003 151.902 171.301 151.421 170.696C150.94 170.092 150.332 169.6 149.64 169.255L136.058 123.152L125.716 128.198L142.319 171.929C141.814 173.126 141.767 174.466 142.188 175.695C142.609 176.924 143.467 177.956 144.601 178.597C145.735 179.237 147.065 179.441 148.34 179.17C149.614 178.898 150.745 178.171 151.517 177.125L151.517 177.125Z" fill="#A0616A"/>
<path d="M139.135 130.851L127.56 133.973C127.231 134.062 126.886 134.079 126.549 134.023C126.213 133.967 125.892 133.839 125.61 133.649C125.327 133.459 125.089 133.21 124.911 132.919C124.734 132.629 124.622 132.304 124.582 131.966L123.182 120.138C122.736 118.457 122.977 116.668 123.852 115.164C124.728 113.659 126.167 112.562 127.853 112.112C129.539 111.663 131.336 111.898 132.848 112.766C134.361 113.634 135.467 115.064 135.923 116.743L140.691 127.622C140.828 127.934 140.895 128.271 140.889 128.611C140.883 128.951 140.803 129.285 140.655 129.592C140.508 129.898 140.296 130.169 140.033 130.386C139.771 130.604 139.465 130.762 139.135 130.851H139.135Z" fill="#45CAFF"/>
<path d="M154.542 221.023L160.585 221.023L163.461 205.409H154.541L154.542 221.023Z" fill="#A0616A"/>
<path d="M153 219.058L164.902 219.057H164.902C165.898 219.057 166.885 219.253 167.805 219.632C168.725 220.012 169.561 220.569 170.265 221.27C170.97 221.972 171.528 222.805 171.909 223.721C172.291 224.638 172.487 225.621 172.487 226.613V226.858L153.001 226.859L153 219.058Z" fill="#2F2E41"/>
<path d="M161.557 212.651C161.486 212.651 161.416 212.647 161.345 212.641L152.981 212.034C152.643 212.003 152.317 211.895 152.027 211.718C151.737 211.541 151.492 211.3 151.311 211.014C151.13 210.728 151.017 210.404 150.981 210.068C150.945 209.731 150.987 209.391 151.104 209.073L162.296 184.022C162.376 183.799 162.409 183.562 162.392 183.325C162.376 183.089 162.31 182.858 162.2 182.648C162.089 182.436 161.935 182.249 161.748 182.1C161.56 181.951 161.342 181.843 161.11 181.784C155.847 180.413 142.343 176.764 130.653 172.494C125.645 170.665 122.491 168.021 121.278 164.636C119.68 160.174 122.045 156.105 122.146 155.934L122.225 155.8L133.225 156.796L145.15 157.807L171.282 171.766C173.471 172.946 175.134 174.904 175.94 177.25C176.746 179.597 176.634 182.159 175.629 184.428L163.581 211.341C163.407 211.731 163.123 212.062 162.763 212.294C162.404 212.527 161.985 212.651 161.557 212.651Z" fill="#2F2E41"/>
<path d="M135.137 107.235C141.824 107.235 147.244 101.835 147.244 95.1739C147.244 88.513 141.824 83.1132 135.137 83.1132C128.451 83.1132 123.031 88.513 123.031 95.1739C123.031 101.835 128.451 107.235 135.137 107.235Z" fill="#A0616A"/>
<path d="M151.092 220.533L157.135 220.532L160.01 204.918H151.091L151.092 220.533Z" fill="#A0616A"/>
<path d="M149.55 218.567L161.451 218.566H161.452C162.448 218.566 163.434 218.762 164.354 219.141C165.274 219.521 166.111 220.078 166.815 220.779C167.519 221.481 168.078 222.314 168.459 223.23C168.84 224.147 169.036 225.13 169.036 226.122V226.367L149.55 226.368L149.55 218.567Z" fill="#2F2E41"/>
<path d="M158.106 214.124C158.036 214.124 157.965 214.121 157.894 214.114L149.531 213.507C149.192 213.476 148.866 213.368 148.576 213.191C148.287 213.014 148.042 212.773 147.86 212.487C147.679 212.201 147.566 211.877 147.53 211.541C147.494 211.204 147.536 210.864 147.653 210.547L158.846 185.496C158.926 185.272 158.958 185.035 158.942 184.798C158.925 184.562 158.859 184.331 158.749 184.121C158.639 183.909 158.485 183.722 158.297 183.573C158.109 183.424 157.892 183.316 157.659 183.257C152.396 181.887 138.892 178.237 127.203 173.967C122.194 172.138 119.04 169.494 117.828 166.11C116.229 161.647 118.594 157.578 118.695 157.407L118.775 157.273L129.774 158.269L141.699 159.28L167.831 173.239C170.021 174.419 171.684 176.377 172.489 178.723C173.295 181.07 173.184 183.632 172.178 185.901L160.13 212.814C159.956 213.204 159.672 213.535 159.313 213.768C158.954 214 158.534 214.124 158.106 214.124Z" fill="#2F2E41"/>
<path d="M138.871 114.074L126.055 109.654C126.055 109.654 118.01 115.812 121.875 131.088C123.892 138.971 123.305 147.292 120.199 154.816C119.825 155.747 119.394 156.654 118.908 157.532C118.908 157.532 133.203 174.719 146.512 161.951L141.336 137.153C141.336 137.153 149.469 120.703 138.871 114.074Z" fill="#2F2E41"/>
<path d="M136.641 107.645C134.917 105.076 133.558 101.513 135.455 99.0682C137.327 96.6551 141.021 97.0106 143.889 95.9428C147.884 94.4555 150.201 89.7804 149.478 85.5935C148.756 81.4066 145.382 77.9358 141.362 76.5157C137.343 75.0956 132.811 75.5574 128.875 77.1928C124.03 79.206 119.873 83.1003 118.131 88.0334C116.388 92.9665 117.319 98.8897 120.935 102.681C124.811 106.746 130.895 107.83 136.523 107.764" fill="#2F2E41"/>
<path d="M125.379 85.7279C123.207 87.4887 119.895 86.7066 117.564 85.1613C115.233 83.6159 113.342 81.4154 110.82 80.2038C106.374 78.0677 100.999 79.4877 96.6721 81.8538C92.3452 84.2198 88.5096 87.4886 83.9391 89.3453C79.3686 91.2021 73.5363 91.2939 70.0754 87.7879C69.2238 90.246 69.1542 92.9061 69.8761 95.4051C70.598 97.9041 72.0763 100.12 74.1093 101.751C76.1423 103.383 78.631 104.349 81.2358 104.519C83.8406 104.689 86.4346 104.055 88.664 102.702C93.6719 99.6631 96.438 93.2915 102.055 91.6143C105.163 90.6861 108.501 91.4337 111.642 92.2433C114.783 93.053 118.059 93.9278 121.229 93.2386C124.399 92.5493 127.365 89.7113 126.961 86.5039L125.379 85.7279Z" fill="#2F2E41"/>
<path d="M164.79 199.371C163.508 191.076 163.508 182.634 164.79 174.339C164.872 173.846 165.126 173.397 165.509 173.072C165.891 172.748 166.377 172.57 166.879 172.569H186.533C186.852 172.568 187.166 172.639 187.453 172.777C187.74 172.916 187.991 173.117 188.187 173.367C188.388 173.62 188.528 173.916 188.597 174.231C188.666 174.546 188.662 174.873 188.585 175.186C186.747 182.858 186.747 190.852 188.585 198.524C188.662 198.837 188.666 199.164 188.597 199.479C188.528 199.794 188.388 200.09 188.187 200.343C187.991 200.593 187.74 200.794 187.453 200.933C187.166 201.071 186.852 201.142 186.533 201.141H166.879C166.377 201.14 165.891 200.962 165.509 200.638C165.126 200.313 164.872 199.865 164.79 199.371Z" fill="#9179FF"/>
<path d="M180.485 184.686H170.171C169.779 184.686 169.403 184.53 169.126 184.254C168.849 183.978 168.693 183.603 168.692 183.213V182.637C168.693 182.247 168.849 181.872 169.126 181.596C169.403 181.32 169.779 181.165 170.171 181.164H180.485C180.877 181.165 181.253 181.32 181.53 181.596C181.808 181.872 181.963 182.247 181.964 182.637V183.213C181.963 183.603 181.808 183.978 181.53 184.254C181.253 184.53 180.877 184.686 180.485 184.686Z" fill="white"/>
<path d="M180.485 190.748H170.171C169.779 190.748 169.403 190.592 169.126 190.316C168.849 190.04 168.693 189.666 168.692 189.275V188.699C168.693 188.309 168.849 187.934 169.126 187.658C169.403 187.382 169.779 187.227 170.171 187.226H180.485C180.877 187.227 181.253 187.382 181.53 187.658C181.808 187.934 181.963 188.309 181.964 188.699V189.275C181.963 189.666 181.808 190.04 181.53 190.316C181.253 190.592 180.877 190.748 180.485 190.748Z" fill="white"/>
<path d="M169.959 174.915C170.252 174.201 170.384 173.432 170.346 172.662C170.308 171.892 170.101 171.139 169.74 170.457C169.378 169.775 168.871 169.18 168.254 168.715C167.637 168.249 166.925 167.924 166.168 167.762L141.455 126.502L132.706 133.962L159.749 172.173C159.561 173.458 159.852 174.767 160.567 175.852C161.283 176.938 162.373 177.724 163.632 178.062C164.89 178.4 166.229 178.266 167.395 177.686C168.562 177.106 169.474 176.12 169.959 174.915L169.959 174.915Z" fill="#A0616A"/>
<path d="M146.365 133.191L135.94 139.094C135.643 139.262 135.313 139.365 134.974 139.394C134.634 139.424 134.291 139.38 133.97 139.266C133.648 139.152 133.355 138.971 133.111 138.734C132.866 138.497 132.676 138.21 132.552 137.893L128.231 126.788C127.377 125.271 127.162 123.479 127.632 121.805C128.103 120.13 129.221 118.709 130.741 117.855C132.261 117 134.059 116.78 135.742 117.244C137.424 117.708 138.853 118.817 139.716 120.329L147.062 129.677C147.272 129.945 147.422 130.254 147.501 130.585C147.58 130.916 147.587 131.259 147.521 131.593C147.455 131.926 147.317 132.242 147.118 132.517C146.918 132.793 146.662 133.023 146.365 133.191Z" fill="#2F2E41"/>
<path d="M257.294 147.684H57.164C56.3142 147.684 55.4993 148.02 54.8984 148.619C54.2975 149.218 53.96 150.029 53.96 150.876C53.96 151.722 54.2975 152.534 54.8984 153.133C55.4993 153.731 56.3142 154.068 57.164 154.068H62.8327V223.552C62.8327 224.398 63.1703 225.21 63.7712 225.809C64.3721 226.407 65.187 226.744 66.0368 226.744C66.8866 226.744 67.7015 226.407 68.3024 225.809C68.9033 225.21 69.2409 224.398 69.2409 223.552V160.201L105.161 225.058C105.587 225.79 106.287 226.323 107.107 226.541C107.927 226.759 108.8 226.644 109.535 226.221C110.27 225.798 110.807 225.102 111.027 224.286C111.247 223.47 111.134 222.599 110.711 221.866L73.1615 154.068H244.725V154.109L207.198 221.866C206.773 222.6 206.658 223.471 206.878 224.288C207.098 225.106 207.635 225.803 208.371 226.227C209.107 226.65 209.981 226.764 210.802 226.545C211.623 226.326 212.323 225.791 212.748 225.058L244.725 167.321V223.552C244.725 224.398 245.062 225.21 245.663 225.809C246.264 226.407 247.079 226.744 247.929 226.744C248.778 226.744 249.593 226.407 250.194 225.809C250.795 225.21 251.133 224.398 251.133 223.552V155.751L252.065 154.068H257.294C258.144 154.068 258.959 153.731 259.56 153.133C260.161 152.534 260.498 151.722 260.498 150.876C260.498 150.029 260.161 149.218 259.56 148.619C258.959 148.02 258.144 147.684 257.294 147.684Z" fill="#3F3D56"/>
<path d="M174.482 145.72H135.54C134.587 145.72 133.815 146.489 133.815 147.439C133.815 148.388 134.587 149.157 135.54 149.157H174.482C175.435 149.157 176.207 148.388 176.207 147.439C176.207 146.489 175.435 145.72 174.482 145.72Z" fill="#CCCCCC"/>
<path d="M200.607 149.157H156.736C155.887 149.156 155.072 148.82 154.472 148.221C153.871 147.623 153.533 146.812 153.532 145.965V121.904C153.533 121.058 153.871 120.246 154.472 119.648C155.072 119.049 155.887 118.713 156.736 118.712H200.607C201.457 118.713 202.271 119.049 202.872 119.648C203.472 120.246 203.81 121.058 203.811 121.904V145.965C203.81 146.812 203.472 147.623 202.872 148.221C202.271 148.82 201.457 149.156 200.607 149.157Z" fill="#CCCCCC"/>
<path d="M178.672 136.881C180.305 136.881 181.629 135.562 181.629 133.935C181.629 132.307 180.305 130.988 178.672 130.988C177.038 130.988 175.714 132.307 175.714 133.935C175.714 135.562 177.038 136.881 178.672 136.881Z" fill="white"/>
<path d="M234.087 89.8733V3.69342C234.089 2.7142 234.479 1.77542 235.175 1.08301C235.87 0.390596 236.812 0.00111383 237.795 0H306.179C307.162 0.00111383 308.104 0.390596 308.799 1.08301C309.494 1.77542 309.885 2.7142 309.886 3.69342V89.8733C309.885 90.8525 309.494 91.7913 308.799 92.4837C308.104 93.1761 307.162 93.5656 306.179 93.5667H237.795C236.812 93.5656 235.87 93.1761 235.175 92.4837C234.479 91.7913 234.089 90.8525 234.087 89.8733ZM237.795 0.820762C237.03 0.821618 236.297 1.12455 235.757 1.66309C235.216 2.20163 234.912 2.9318 234.911 3.69342V89.8733C234.912 90.6349 235.216 91.3651 235.757 91.9036C236.297 92.4421 237.03 92.7451 237.795 92.7459H306.179C306.943 92.7451 307.676 92.4421 308.217 91.9036C308.757 91.3651 309.061 90.6349 309.062 89.8733V3.69342C309.061 2.9318 308.757 2.20163 308.217 1.66309C307.676 1.12455 306.943 0.821618 306.179 0.820762H237.795Z" fill="#E6E6E6"/>
<path d="M275.822 39.5778V21.8824C275.822 21.3927 276.018 20.9233 276.365 20.5771C276.713 20.2309 277.184 20.0362 277.676 20.0356H292.728C293.22 20.0362 293.691 20.2309 294.038 20.5771C294.386 20.9233 294.581 21.3927 294.582 21.8824V39.5778C294.581 40.0674 294.386 40.5368 294.038 40.883C293.691 41.2292 293.22 41.424 292.728 41.4245H277.676C277.184 41.424 276.713 41.2292 276.365 40.883C276.018 40.5368 275.822 40.0674 275.822 39.5778Z" fill="#9179FF"/>
<path d="M246.573 47.7853V30.0899C246.574 29.6003 246.769 29.1309 247.117 28.7847C247.464 28.4385 247.936 28.2437 248.427 28.2432H263.48C263.971 28.2437 264.442 28.4385 264.79 28.7847C265.137 29.1309 265.333 29.6003 265.333 30.0899V47.7853C265.333 48.2749 265.137 48.7443 264.79 49.0905C264.442 49.4368 263.971 49.6315 263.48 49.632H248.427C247.936 49.6315 247.464 49.4368 247.117 49.0905C246.769 48.7443 246.574 48.2749 246.573 47.7853Z" fill="#CCCCCC"/>
<path d="M270.054 72.8185V55.1231C270.055 54.6335 270.25 54.1641 270.598 53.8179C270.946 53.4717 271.417 53.2769 271.908 53.2764H286.961C287.452 53.2769 287.924 53.4717 288.271 53.8179C288.619 54.1641 288.814 54.6335 288.815 55.1231V72.8185C288.814 73.3081 288.619 73.7775 288.271 74.1237C287.924 74.4699 287.452 74.6647 286.961 74.6652H271.908C271.417 74.6647 270.946 74.47 270.598 74.1238C270.25 73.7775 270.055 73.3081 270.054 72.8185Z" fill="#FF6584"/>
<path d="M384.852 8.97996C386.613 8.97996 388.04 7.5582 388.04 5.80437C388.04 4.05054 386.613 2.62878 384.852 2.62878C383.092 2.62878 381.665 4.05054 381.665 5.80437C381.665 7.5582 383.092 8.97996 384.852 8.97996Z" fill="#F2F2F2"/>
<path d="M384.852 21.6361C386.613 21.6361 388.04 20.2143 388.04 18.4605C388.04 16.7067 386.613 15.2849 384.852 15.2849C383.092 15.2849 381.665 16.7067 381.665 18.4605C381.665 20.2143 383.092 21.6361 384.852 21.6361Z" fill="#F2F2F2"/>
<path d="M384.852 34.2921C386.613 34.2921 388.04 32.8703 388.04 31.1165C388.04 29.3627 386.613 27.9409 384.852 27.9409C383.092 27.9409 381.665 29.3627 381.665 31.1165C381.665 32.8703 383.092 34.2921 384.852 34.2921Z" fill="#F2F2F2"/>
<path d="M384.852 46.9481C386.613 46.9481 388.04 45.5263 388.04 43.7725C388.04 42.0187 386.613 40.5969 384.852 40.5969C383.092 40.5969 381.665 42.0187 381.665 43.7725C381.665 45.5263 383.092 46.9481 384.852 46.9481Z" fill="#9179FF"/>
<path d="M371.543 8.97996C373.304 8.97996 374.731 7.5582 374.731 5.80437C374.731 4.05054 373.304 2.62878 371.543 2.62878C369.783 2.62878 368.355 4.05054 368.355 5.80437C368.355 7.5582 369.783 8.97996 371.543 8.97996Z" fill="#F2F2F2"/>
<path d="M371.543 21.6361C373.304 21.6361 374.731 20.2143 374.731 18.4605C374.731 16.7067 373.304 15.2849 371.543 15.2849C369.783 15.2849 368.355 16.7067 368.355 18.4605C368.355 20.2143 369.783 21.6361 371.543 21.6361Z" fill="#F2F2F2"/>
<path d="M371.543 34.2921C373.304 34.2921 374.731 32.8703 374.731 31.1165C374.731 29.3627 373.304 27.9409 371.543 27.9409C369.783 27.9409 368.355 29.3627 368.355 31.1165C368.355 32.8703 369.783 34.2921 371.543 34.2921Z" fill="#9179FF"/>
<path d="M371.543 46.9481C373.304 46.9481 374.731 45.5263 374.731 43.7725C374.731 42.0187 373.304 40.5969 371.543 40.5969C369.783 40.5969 368.355 42.0187 368.355 43.7725C368.355 45.5263 369.783 46.9481 371.543 46.9481Z" fill="#F2F2F2"/>
<path d="M358.234 8.97996C359.995 8.97996 361.422 7.5582 361.422 5.80437C361.422 4.05054 359.995 2.62878 358.234 2.62878C356.474 2.62878 355.046 4.05054 355.046 5.80437C355.046 7.5582 356.474 8.97996 358.234 8.97996Z" fill="#F2F2F2"/>
<path d="M358.234 21.6361C359.995 21.6361 361.422 20.2143 361.422 18.4605C361.422 16.7067 359.995 15.2849 358.234 15.2849C356.474 15.2849 355.046 16.7067 355.046 18.4605C355.046 20.2143 356.474 21.6361 358.234 21.6361Z" fill="#9179FF"/>
<path d="M358.234 34.2921C359.995 34.2921 361.422 32.8703 361.422 31.1165C361.422 29.3627 359.995 27.9409 358.234 27.9409C356.474 27.9409 355.046 29.3627 355.046 31.1165C355.046 32.8703 356.474 34.2921 358.234 34.2921Z" fill="#F2F2F2"/>
<path d="M358.234 46.9481C359.995 46.9481 361.422 45.5263 361.422 43.7725C361.422 42.0187 359.995 40.5969 358.234 40.5969C356.474 40.5969 355.046 42.0187 355.046 43.7725C355.046 45.5263 356.474 46.9481 358.234 46.9481Z" fill="#F2F2F2"/>
<path d="M344.925 8.97996C346.685 8.97996 348.113 7.5582 348.113 5.80437C348.113 4.05054 346.685 2.62878 344.925 2.62878C343.164 2.62878 341.737 4.05054 341.737 5.80437C341.737 7.5582 343.164 8.97996 344.925 8.97996Z" fill="#9179FF"/>
<path d="M344.925 21.6361C346.685 21.6361 348.113 20.2143 348.113 18.4605C348.113 16.7067 346.685 15.2849 344.925 15.2849C343.164 15.2849 341.737 16.7067 341.737 18.4605C341.737 20.2143 343.164 21.6361 344.925 21.6361Z" fill="#F2F2F2"/>
<path d="M344.925 34.2921C346.685 34.2921 348.113 32.8703 348.113 31.1165C348.113 29.3627 346.685 27.9409 344.925 27.9409C343.164 27.9409 341.737 29.3627 341.737 31.1165C341.737 32.8703 343.164 34.2921 344.925 34.2921Z" fill="#F2F2F2"/>
<path d="M344.925 46.9481C346.685 46.9481 348.113 45.5263 348.113 43.7725C348.113 42.0187 346.685 40.5969 344.925 40.5969C343.164 40.5969 341.737 42.0187 341.737 43.7725C341.737 45.5263 343.164 46.9481 344.925 46.9481Z" fill="#F2F2F2"/>
<path d="M331.616 8.97996C333.376 8.97996 334.803 7.5582 334.803 5.80437C334.803 4.05054 333.376 2.62878 331.616 2.62878C329.855 2.62878 328.428 4.05054 328.428 5.80437C328.428 7.5582 329.855 8.97996 331.616 8.97996Z" fill="#F2F2F2"/>
<path d="M331.616 21.6361C333.376 21.6361 334.803 20.2143 334.803 18.4605C334.803 16.7067 333.376 15.2849 331.616 15.2849C329.855 15.2849 328.428 16.7067 328.428 18.4605C328.428 20.2143 329.855 21.6361 331.616 21.6361Z" fill="#F2F2F2"/>
<path d="M331.616 34.2921C333.376 34.2921 334.803 32.8703 334.803 31.1165C334.803 29.3627 333.376 27.9409 331.616 27.9409C329.855 27.9409 328.428 29.3627 328.428 31.1165C328.428 32.8703 329.855 34.2921 331.616 34.2921Z" fill="#F2F2F2"/>
<path d="M331.616 46.9481C333.376 46.9481 334.803 45.5263 334.803 43.7725C334.803 42.0187 333.376 40.5969 331.616 40.5969C329.855 40.5969 328.428 42.0187 328.428 43.7725C328.428 45.5263 329.855 46.9481 331.616 46.9481Z" fill="#F2F2F2"/>
<path d="M318.307 8.97996C320.067 8.97996 321.494 7.5582 321.494 5.80437C321.494 4.05054 320.067 2.62878 318.307 2.62878C316.546 2.62878 315.119 4.05054 315.119 5.80437C315.119 7.5582 316.546 8.97996 318.307 8.97996Z" fill="#F2F2F2"/>
<path d="M318.307 21.6361C320.067 21.6361 321.494 20.2143 321.494 18.4605C321.494 16.7067 320.067 15.2849 318.307 15.2849C316.546 15.2849 315.119 16.7067 315.119 18.4605C315.119 20.2143 316.546 21.6361 318.307 21.6361Z" fill="#F2F2F2"/>
<path d="M318.307 34.2921C320.067 34.2921 321.494 32.8703 321.494 31.1165C321.494 29.3627 320.067 27.9409 318.307 27.9409C316.546 27.9409 315.119 29.3627 315.119 31.1165C315.119 32.8703 316.546 34.2921 318.307 34.2921Z" fill="#F2F2F2"/>
<path d="M318.307 46.9481C320.067 46.9481 321.494 45.5263 321.494 43.7725C321.494 42.0187 320.067 40.5969 318.307 40.5969C316.546 40.5969 315.119 42.0187 315.119 43.7725C315.119 45.5263 316.546 46.9481 318.307 46.9481Z" fill="#F2F2F2"/>
<path d="M331.149 118.468C330.888 117.753 330.781 116.99 330.836 116.231C330.891 115.472 331.106 114.733 331.467 114.062C331.829 113.392 332.328 112.805 332.933 112.34C333.538 111.875 334.235 111.543 334.978 111.365C335.214 111.31 335.453 111.271 335.694 111.249L347.673 90.331L344.648 85.1541L352.178 79.3672L357.939 87.3379C358.626 88.2961 358.984 89.4495 358.961 90.6267C358.938 91.804 358.535 92.9424 357.81 93.8732L341.364 114.848C341.424 115.015 341.475 115.184 341.517 115.356C341.695 116.096 341.715 116.866 341.574 117.614C341.433 118.362 341.135 119.072 340.699 119.697C340.264 120.323 339.7 120.849 339.046 121.243C338.392 121.636 337.662 121.888 336.903 121.98C336.683 122.008 336.461 122.022 336.239 122.022C335.128 122.018 334.045 121.676 333.135 121.04C332.225 120.405 331.532 119.507 331.149 118.468Z" fill="#FFB8B8"/>
<path d="M307.777 221.41L301.734 221.409L298.859 198.188L307.778 198.189L307.777 221.41Z" fill="#FFB8B8"/>
<path d="M297.417 219.689H309.072V226.999H290.079C290.079 226.039 290.269 225.089 290.637 224.202C291.006 223.315 291.547 222.509 292.228 221.83C292.91 221.152 293.719 220.613 294.609 220.246C295.499 219.878 296.453 219.689 297.417 219.689Z" fill="#2F2E41"/>
<path d="M357.563 221.41L351.52 221.409L348.645 198.188L357.564 198.189L357.563 221.41Z" fill="#FFB8B8"/>
<path d="M347.203 219.689H358.858V226.999H339.865C339.865 226.039 340.055 225.089 340.424 224.202C340.792 223.315 341.333 222.509 342.014 221.83C342.696 221.152 343.505 220.613 344.395 220.246C345.285 219.878 346.24 219.689 347.203 219.689Z" fill="#2F2E41"/>
<path d="M353.854 80.4979L340.286 85.634L336.974 76.4677C336.534 75.2505 336.54 73.9176 336.991 72.7046C337.442 71.4916 338.309 70.4765 339.439 69.8387C340.582 69.1935 341.919 68.9767 343.208 69.2275C344.498 69.4782 345.654 70.18 346.47 71.206L353.854 80.4979Z" fill="#45CAFF"/>
<path d="M308.299 202.603L296.919 200.017C296.314 199.879 295.784 199.517 295.436 199.006C295.087 198.494 294.946 197.869 295.04 197.258C299.606 168.429 303.999 151.546 315.32 130.105C315.478 129.706 317.245 121.591 318.399 116.216C318.386 115.624 318.589 115.047 318.972 114.593C319.354 114.139 319.888 113.839 320.476 113.749L341.694 110.496C342.014 110.385 342.352 110.335 342.691 110.346L342.903 110.386L342.9 110.594C342.897 110.809 342.683 110.842 342.602 110.854L342.32 110.898C342.642 111.047 342.937 111.247 343.195 111.49C352.492 122.629 357.326 159.142 363.466 199.479C363.5 199.807 363.46 200.138 363.349 200.448C363.237 200.758 363.058 201.039 362.823 201.27C362.601 201.512 362.332 201.706 362.032 201.842C361.732 201.977 361.408 202.05 361.079 202.056L347.523 202.386C346.927 202.399 346.347 202.196 345.891 201.815C345.434 201.434 345.132 200.901 345.041 200.314L335.91 147.748C335.847 147.337 335.654 146.957 335.36 146.663C335.065 146.369 334.684 146.176 334.272 146.113C333.86 146.05 333.438 146.119 333.068 146.311C332.698 146.503 332.4 146.807 332.216 147.18C324.849 162.125 317.979 175.05 311.214 200.835C311.079 201.358 310.774 201.822 310.347 202.153C309.919 202.484 309.393 202.665 308.851 202.665C308.665 202.665 308.48 202.644 308.299 202.603Z" fill="#2F2E41"/>
<path d="M319.344 116.816C319.058 116.615 318.819 116.356 318.642 116.055C318.465 115.755 318.354 115.42 318.317 115.074C316.579 98.9132 317.789 86.2664 322.017 76.4106C322.761 74.7107 323.883 73.201 325.297 71.995C326.712 70.789 328.382 69.918 330.183 69.4476L341.151 68.8961L341.207 68.9235C343.682 70.131 345.701 72.101 346.963 74.5413C348.226 76.9815 348.665 79.7621 348.216 82.4708C344.689 91.7337 341.735 101.378 343.988 109.158C344.082 109.483 344.11 109.824 344.069 110.16C344.028 110.496 343.919 110.82 343.749 111.114C343.585 111.397 343.363 111.644 343.099 111.839C342.835 112.034 342.534 112.173 342.213 112.248L321.324 117.198C320.985 117.278 320.634 117.286 320.292 117.22C319.951 117.154 319.628 117.016 319.344 116.816Z" fill="#9179FF"/>
<path d="M314.623 93.625L293.587 77.0932C293.42 77.152 293.249 77.2021 293.076 77.2433C292.334 77.4164 291.563 77.4318 290.814 77.2887C290.066 77.1456 289.355 76.8472 288.73 76.4128C288.1 75.9781 287.571 75.4144 287.178 74.7595C286.784 74.1046 286.536 73.3735 286.449 72.6153C286.308 71.4031 286.582 70.179 287.227 69.1416C287.873 68.1042 288.851 67.3144 290.003 66.9003C290.722 66.6433 291.488 66.5406 292.249 66.5989C293.011 66.6571 293.752 66.8751 294.423 67.2384C295.095 67.6018 295.682 68.1023 296.145 68.7073C296.609 69.3122 296.939 70.008 297.114 70.7489C297.168 70.9837 297.206 71.2219 297.227 71.462L318.167 83.4964L323.378 80.5076L329.151 88.0364L321.06 93.7814C320.113 94.4484 318.975 94.7934 317.815 94.7652C316.656 94.7371 315.536 94.3372 314.623 93.625H314.623Z" fill="#FFB8B8"/>
<path d="M331.718 90.381L319.716 82.2504L325.356 74.292C326.105 73.2352 327.205 72.4762 328.462 72.1491C329.718 71.8221 331.05 71.9479 332.222 72.5045C333.408 73.0676 334.353 74.0345 334.886 75.2306C335.418 76.4268 335.504 77.7733 335.128 79.027L331.718 90.381Z" fill="#9179FF"/>
<path d="M337.49 64.8153C344.177 64.8153 349.597 59.4155 349.597 52.7545C349.597 46.0935 344.177 40.6937 337.49 40.6937C330.804 40.6937 325.383 46.0935 325.383 52.7545C325.383 59.4155 330.804 64.8153 337.49 64.8153Z" fill="#FFB8B8"/>
<path d="M333.052 50.9581C329.94 53.0797 325.854 55.2606 322.676 53.0013C320.589 51.5178 319.932 48.7706 320.778 46.3598C322.3 42.0245 326.481 40.1159 330.479 38.653C335.677 36.7511 341.336 35.2381 346.702 36.6001C352.068 37.9621 356.81 43.1374 355.841 48.5685C355.062 52.936 350.927 56.5702 351.514 60.9674C352.105 65.3928 357.1 67.7223 361.511 68.5132C365.922 69.3041 370.857 69.5583 374.027 72.7143C378.071 76.7403 377.061 83.9364 373.256 88.1871C369.451 92.4378 363.709 94.3646 358.146 95.6745C350.774 97.41 342.801 98.3221 335.8 95.4419C328.799 92.5616 323.351 84.8084 325.379 77.5382C326.236 74.4672 328.254 71.8718 330.204 69.3452C332.154 66.8185 334.129 64.1764 334.873 61.0764C335.493 58.4931 335.034 55.4938 333.315 53.556C333.002 53.2168 332.805 52.7876 332.752 52.33C332.7 51.8725 332.794 51.41 333.022 51.0092L333.052 50.9581Z" fill="#2F2E41"/>
</svg>
