<svg width="372" height="241" viewBox="0 0 372 241" fill="none" xmlns="http://www.w3.org/2000/svg">
<g clip-path="url(#clip0_3_2)">
<path d="M60.4332 112.223C65.8789 112.223 70.2935 107.807 70.2935 102.359C70.2935 96.9116 65.8789 92.4953 60.4332 92.4953C54.9876 92.4953 50.573 96.9116 50.573 102.359C50.573 107.807 54.9876 112.223 60.4332 112.223Z" fill="#FFB8B8"/>
<path d="M27.1157 220.563L29.6124 224.806L47.1609 217.192L43.476 210.93L27.1157 220.563Z" fill="#FFB8B8"/>
<path d="M27.8638 218.665L32.7806 227.022L32.7808 227.022C33.1923 227.721 33.462 228.495 33.5746 229.298C33.6872 230.102 33.6405 230.92 33.4372 231.706C33.2338 232.491 32.8777 233.229 32.3893 233.877C31.9009 234.525 31.2897 235.07 30.5906 235.482L30.4176 235.584L22.3674 221.902L27.8638 218.665Z" fill="#2F2E41"/>
<path d="M56.0435 235.849L60.9654 235.849L63.3067 216.858L56.0427 216.858L56.0435 235.849Z" fill="#FFB8B8"/>
<path d="M54.7883 234.242L64.4811 234.241H64.4815C65.2926 234.241 66.0959 234.401 66.8453 234.712C67.5948 235.022 68.2757 235.477 68.8493 236.051C69.4229 236.625 69.8779 237.306 70.1883 238.056C70.4987 238.806 70.6585 239.609 70.6585 240.421V240.621L54.7886 240.622L54.7883 234.242Z" fill="#2F2E41"/>
<path d="M36.2563 224.343C35.9731 224.343 35.6938 224.277 35.441 224.149C35.1882 224.021 34.9692 223.835 34.8015 223.607L30.0547 217.158C29.9099 216.961 29.8065 216.737 29.7507 216.499C29.6949 216.261 29.6879 216.015 29.7301 215.774C29.7722 215.533 29.8628 215.304 29.9962 215.099C30.1296 214.894 30.3031 214.719 30.5062 214.583L51.6285 200.47L38.8836 166.946L66.1382 169.196L67.0562 198.005C67.1423 200.628 66.5137 203.226 65.2377 205.52C63.9616 207.814 62.0861 209.717 59.8118 211.026L37.1589 224.1C36.8847 224.259 36.5733 224.343 36.2563 224.343Z" fill="#2F2E41"/>
<path d="M56.1922 231.994C55.7248 231.993 55.2759 231.811 54.9399 231.486C54.6038 231.161 54.4068 230.718 54.3902 230.251L53.3914 202.186L65.7596 201.534L64.7748 229.801C64.7603 230.248 64.5796 230.675 64.2679 230.996C63.9561 231.318 63.5358 231.512 63.0888 231.541L56.3151 231.99C56.274 231.993 56.233 231.994 56.1922 231.994Z" fill="#2F2E41"/>
<path d="M69.2924 174.769C66.1457 174.769 55.1545 171.228 51.3388 169.966C50.7679 170.423 47.632 172.769 43.9716 172.34C41.7129 172.075 39.7246 170.796 38.0617 168.539C34.3896 163.553 38.9251 142.172 43.3766 125.114C44.269 121.666 46.463 118.698 49.4972 116.835C52.5315 114.972 56.1697 114.358 59.6471 115.122C62.1675 115.679 64.4828 116.927 66.3329 118.728C68.183 120.528 69.4946 122.809 70.1202 125.314C70.9583 128.727 70.2374 132.742 69.7109 135.673C69.4635 137.051 69.2679 138.14 69.3348 138.675C69.5931 140.743 71.0284 173.17 70.1056 174.555C70.0072 174.702 69.723 174.769 69.2924 174.769Z" fill="#8D7DFF"/>
<path d="M57.7807 174.826C58.2865 174.45 58.7035 173.967 59.0025 173.412C59.3014 172.856 59.475 172.242 59.5111 171.612C59.5471 170.983 59.4447 170.353 59.2111 169.767C58.9774 169.181 58.6182 168.654 58.1587 168.222L58.3536 128.927L49.1021 130.468L51.8196 168.609C51.1455 169.429 50.7955 170.468 50.836 171.529C50.8766 172.591 51.3048 173.6 52.0396 174.366C52.7744 175.133 53.7646 175.603 54.8228 175.688C55.8809 175.773 56.9334 175.466 57.7807 174.826Z" fill="#FFB8B8"/>
<path d="M59.9205 154.162H49.9555C49.4797 154.161 49.0235 153.972 48.6854 153.637C48.3474 153.302 48.1547 152.847 48.149 152.371L47.9043 125.346C47.8959 124.412 48.0727 123.485 48.4246 122.619C48.7764 121.754 49.2964 120.966 49.9543 120.303C50.6123 119.64 51.3952 119.113 52.2577 118.754C53.1203 118.396 54.0454 118.212 54.9796 118.213C55.9137 118.214 56.8384 118.4 57.7 118.761C58.5617 119.122 59.3433 119.65 59.9997 120.315C60.656 120.98 61.174 121.769 61.5238 122.635C61.8735 123.502 62.0481 124.429 62.0373 125.364L61.7269 152.376C61.7198 152.851 61.5266 153.304 61.1888 153.638C60.8509 153.973 60.3955 154.161 59.9205 154.162Z" fill="#8D7DFF"/>
<path d="M57.9225 112.182C53.408 112.19 49.149 108.621 48.3666 104.173C48.0865 102.425 48.2128 100.637 48.7357 98.9463C49.3034 97.0217 50.2769 95.2412 51.5907 93.7249C52.9045 92.2086 54.5279 90.9916 56.3517 90.1561C58.1754 89.3206 60.157 88.8859 62.1629 88.8814C64.1687 88.8769 66.1523 89.3026 67.9797 90.1298C69.1874 90.6766 70.377 91.4618 70.93 92.667C71.483 93.8722 71.1369 95.5567 69.9272 96.099C69.1367 96.4534 68.1446 96.2793 67.4433 96.788C66.4359 97.5187 66.6952 99.0737 67.1451 100.234C67.5949 101.395 68.1037 102.799 67.3496 103.79C66.647 104.712 65.2425 104.684 64.1362 104.336C63.0299 103.989 61.938 103.407 60.7846 103.526C59.1023 103.698 57.8934 105.372 57.6696 107.049C57.4458 108.726 57.9726 110.402 58.4927 112.012L57.9225 112.182Z" fill="#2F2E41"/>
<path d="M103.978 241H0.401458C0.294985 241 0.192872 240.958 0.117584 240.882C0.0422961 240.807 0 240.705 0 240.598C0 240.492 0.0422961 240.39 0.117584 240.314C0.192872 240.239 0.294985 240.197 0.401458 240.197H103.978C104.084 240.197 104.186 240.239 104.262 240.314C104.337 240.39 104.379 240.492 104.379 240.598C104.379 240.705 104.337 240.807 104.262 240.882C104.186 240.958 104.084 241 103.978 241Z" fill="#CCCCCC"/>
<path d="M365.376 174.519H108.106C106.35 174.517 104.666 173.818 103.424 172.576C102.182 171.333 101.484 169.649 101.482 167.892V9.19447C101.483 7.90737 101.995 6.67339 102.905 5.76326C103.815 4.85312 105.048 4.34114 106.335 4.33966H367.063C368.372 4.34115 369.627 4.86196 370.552 5.78784C371.478 6.71371 371.999 7.96903 372 9.2784V167.892C371.998 169.649 371.3 171.333 370.058 172.576C368.816 173.818 367.132 174.517 365.376 174.519Z" fill="#F2F2F2"/>
<path d="M357.058 166.152H117.289C113.774 166.152 110.915 163.473 110.915 160.181V21.9851C110.915 19.5433 113.034 17.5566 115.638 17.5566H358.63C361.278 17.5566 363.432 19.576 363.432 22.058V160.181C363.432 163.473 360.573 166.152 357.058 166.152Z" fill="white"/>
<path d="M371.908 10.0202H101.389V6.64656C101.391 4.88385 102.093 3.19414 103.339 1.9481C104.586 0.70206 106.275 0.00146161 108.037 0H365.26C367.022 0.00144674 368.711 0.702039 369.957 1.94808C371.204 3.19412 371.905 4.88385 371.908 6.64656V10.0202Z" fill="#3F3D56"/>
<path d="M113.471 6.74039C114.421 6.74039 115.191 5.9702 115.191 5.02013C115.191 4.07005 114.421 3.29987 113.471 3.29987C112.521 3.29987 111.751 4.07005 111.751 5.02013C111.751 5.9702 112.521 6.74039 113.471 6.74039Z" fill="white"/>
<path d="M119.998 6.74039C120.948 6.74039 121.718 5.9702 121.718 5.02013C121.718 4.07005 120.948 3.29987 119.998 3.29987C119.048 3.29987 118.279 4.07005 118.279 5.02013C118.279 5.9702 119.048 6.74039 119.998 6.74039Z" fill="white"/>
<path d="M126.526 6.74039C127.475 6.74039 128.245 5.9702 128.245 5.02013C128.245 4.07005 127.475 3.29987 126.526 3.29987C125.576 3.29987 124.806 4.07005 124.806 5.02013C124.806 5.9702 125.576 6.74039 126.526 6.74039Z" fill="white"/>
<path d="M231.485 47.7733H184.592C183.892 47.7733 183.222 47.4955 182.728 47.0009C182.233 46.5064 181.956 45.8356 181.956 45.1363C181.956 44.4369 182.233 43.7661 182.728 43.2716C183.222 42.7771 183.892 42.4992 184.592 42.4992H231.485C232.184 42.4992 232.855 42.7771 233.349 43.2716C233.843 43.7661 234.121 44.4369 234.121 45.1363C234.121 45.8356 233.843 46.5064 233.349 47.0009C232.855 47.4955 232.184 47.7733 231.485 47.7733Z" fill="#CCCCCC"/>
<path d="M289.755 47.7733H242.862C242.163 47.7733 241.492 47.4955 240.998 47.0009C240.503 46.5064 240.226 45.8356 240.226 45.1363C240.226 44.4369 240.503 43.7661 240.998 43.2716C241.492 42.7771 242.163 42.4992 242.862 42.4992H289.755C290.454 42.4992 291.125 42.7771 291.619 43.2716C292.114 43.7661 292.391 44.4369 292.391 45.1363C292.391 45.8356 292.114 46.5064 291.619 47.0009C291.125 47.4955 290.454 47.7733 289.755 47.7733Z" fill="#CCCCCC"/>
<path d="M289.755 57.7662H208.177C207.478 57.7662 206.807 57.4884 206.313 56.9938C205.819 56.4993 205.541 55.8286 205.541 55.1292C205.541 54.4298 205.819 53.7591 206.313 53.2645C206.807 52.77 207.478 52.4922 208.177 52.4922H289.755C290.454 52.4922 291.125 52.77 291.619 53.2645C292.114 53.7591 292.391 54.4298 292.391 55.1292C292.391 55.8286 292.114 56.4993 291.619 56.9938C291.125 57.4884 290.454 57.7662 289.755 57.7662Z" fill="#CCCCCC"/>
<path d="M231.485 37.6415H184.592C183.893 37.6407 183.223 37.3625 182.73 36.868C182.236 36.3736 181.959 35.7033 181.959 35.0045C181.959 34.3057 182.236 33.6354 182.73 33.141C183.223 32.6466 183.893 32.3684 184.592 32.3675H231.485C231.832 32.3671 232.175 32.435 232.495 32.5673C232.815 32.6996 233.106 32.8938 233.351 33.1387C233.596 33.3836 233.791 33.6745 233.923 33.9946C234.056 34.3148 234.124 34.6579 234.124 35.0045C234.124 35.3511 234.056 35.6943 233.923 36.0144C233.791 36.3346 233.596 36.6254 233.351 36.8703C233.106 37.1152 232.815 37.3094 232.495 37.4417C232.175 37.5741 231.832 37.642 231.485 37.6415Z" fill="#CCCCCC"/>
<path d="M257.29 37.7803H243.971C243.272 37.7803 242.602 37.5025 242.108 37.008C241.613 36.5134 241.335 35.8427 241.335 35.1433C241.335 34.4439 241.613 33.7732 242.108 33.2787C242.602 32.7841 243.272 32.5063 243.971 32.5063H257.29C257.989 32.5063 258.66 32.7841 259.154 33.2787C259.649 33.7732 259.926 34.4439 259.926 35.1433C259.926 35.8427 259.649 36.5134 259.154 37.008C258.66 37.5025 257.989 37.7803 257.29 37.7803Z" fill="#CCCCCC"/>
<path d="M197.91 57.7662H184.592C183.893 57.7653 183.223 57.4871 182.73 56.9927C182.236 56.4982 181.959 55.828 181.959 55.1292C181.959 54.4304 182.236 53.7601 182.73 53.2657C183.223 52.7712 183.893 52.493 184.592 52.4922H197.91C198.257 52.4917 198.6 52.5596 198.92 52.692C199.24 52.8243 199.531 53.0185 199.776 53.2634C200.022 53.5083 200.216 53.7991 200.349 54.1193C200.481 54.4394 200.55 54.7826 200.55 55.1292C200.55 55.4757 200.481 55.8189 200.349 56.1391C200.216 56.4592 200.022 56.7501 199.776 56.995C199.531 57.2399 199.24 57.4341 198.92 57.5664C198.6 57.6987 198.257 57.7666 197.91 57.7662Z" fill="#CCCCCC"/>
<path d="M231.485 141.348H184.592C183.892 141.348 183.222 141.071 182.728 140.576C182.233 140.081 181.956 139.411 181.956 138.711C181.956 138.012 182.233 137.341 182.728 136.847C183.222 136.352 183.892 136.074 184.592 136.074H231.485C231.831 136.074 232.174 136.143 232.494 136.275C232.814 136.408 233.104 136.602 233.349 136.847C233.594 137.092 233.788 137.382 233.921 137.702C234.053 138.022 234.121 138.365 234.121 138.711C234.121 139.058 234.053 139.401 233.921 139.72C233.788 140.04 233.594 140.331 233.349 140.576C233.104 140.821 232.814 141.015 232.494 141.148C232.174 141.28 231.831 141.348 231.485 141.348Z" fill="#CCCCCC"/>
<path d="M289.755 141.348H242.862C242.163 141.348 241.492 141.071 240.998 140.576C240.503 140.081 240.226 139.411 240.226 138.711C240.226 138.012 240.503 137.341 240.998 136.847C241.492 136.352 242.163 136.074 242.862 136.074H289.755C290.101 136.074 290.444 136.143 290.764 136.275C291.084 136.408 291.374 136.602 291.619 136.847C291.864 137.092 292.058 137.382 292.191 137.702C292.323 138.022 292.391 138.365 292.391 138.711C292.391 139.058 292.323 139.401 292.191 139.72C292.058 140.04 291.864 140.331 291.619 140.576C291.374 140.821 291.084 141.015 290.764 141.148C290.444 141.28 290.101 141.348 289.755 141.348Z" fill="#CCCCCC"/>
<path d="M289.755 151.341H208.177C207.478 151.341 206.807 151.063 206.313 150.569C205.819 150.074 205.541 149.404 205.541 148.704C205.541 148.005 205.819 147.334 206.313 146.84C206.807 146.345 207.478 146.067 208.177 146.067H289.755C290.102 146.067 290.445 146.135 290.765 146.267C291.085 146.399 291.376 146.594 291.621 146.838C291.866 147.083 292.061 147.374 292.194 147.694C292.326 148.015 292.395 148.358 292.395 148.704C292.395 149.051 292.326 149.394 292.194 149.714C292.061 150.034 291.866 150.325 291.621 150.57C291.376 150.815 291.085 151.009 290.765 151.142C290.445 151.274 290.102 151.342 289.755 151.341Z" fill="#CCCCCC"/>
<path d="M231.485 131.217H184.592C183.892 131.217 183.222 130.939 182.728 130.444C182.233 129.95 181.956 129.279 181.956 128.58C181.956 127.88 182.233 127.209 182.728 126.715C183.222 126.22 183.892 125.943 184.592 125.943H231.485C232.184 125.943 232.855 126.22 233.349 126.715C233.843 127.209 234.121 127.88 234.121 128.58C234.121 129.279 233.843 129.95 233.349 130.444C232.855 130.939 232.184 131.217 231.485 131.217Z" fill="#CCCCCC"/>
<path d="M257.29 131.355H243.971C243.272 131.355 242.602 131.078 242.108 130.583C241.613 130.088 241.335 129.418 241.335 128.718C241.335 128.019 241.613 127.348 242.108 126.854C242.602 126.359 243.272 126.081 243.971 126.081H257.29C257.989 126.081 258.66 126.359 259.154 126.854C259.649 127.348 259.926 128.019 259.926 128.718C259.926 129.418 259.649 130.088 259.154 130.583C258.66 131.078 257.989 131.355 257.29 131.355Z" fill="#CCCCCC"/>
<path d="M197.91 151.341H184.592C183.892 151.341 183.222 151.063 182.728 150.569C182.233 150.074 181.956 149.404 181.956 148.704C181.956 148.005 182.233 147.334 182.728 146.84C183.222 146.345 183.892 146.067 184.592 146.067H197.91C198.257 146.067 198.6 146.135 198.92 146.267C199.24 146.399 199.531 146.594 199.777 146.838C200.022 147.083 200.216 147.374 200.349 147.694C200.481 148.015 200.55 148.358 200.55 148.704C200.55 149.051 200.481 149.394 200.349 149.714C200.216 150.034 200.022 150.325 199.777 150.57C199.531 150.815 199.24 151.009 198.92 151.142C198.6 151.274 198.257 151.342 197.91 151.341Z" fill="#CCCCCC"/>
<path d="M219.238 113.038C218.243 113.04 217.287 112.649 216.579 111.949L198.951 94.5359C198.605 94.194 198.331 93.7868 198.143 93.3379C197.955 92.889 197.859 92.4073 197.859 91.9207C197.859 91.4342 197.955 90.9525 198.143 90.5036C198.331 90.0546 198.605 89.6474 198.951 89.3056L216.508 71.9623C217.239 71.2433 218.224 70.8418 219.25 70.8451C220.275 70.8483 221.258 71.2559 221.985 71.9796C222.712 72.709 223.121 73.6974 223.121 74.7279C223.121 75.7584 222.713 76.7468 221.985 77.4763L208.939 90.5273C208.533 90.9348 208.304 91.487 208.304 92.0627C208.304 92.6384 208.533 93.1906 208.939 93.5982L221.914 106.578C222.444 107.107 222.805 107.782 222.951 108.516C223.098 109.251 223.023 110.012 222.736 110.704C222.45 111.395 221.964 111.987 221.341 112.402C220.719 112.818 219.987 113.039 219.238 113.038V113.038Z" fill="#8D7DFF"/>
<path d="M247.326 113.038C246.578 113.039 245.846 112.818 245.223 112.402C244.6 111.987 244.115 111.395 243.828 110.704C243.541 110.012 243.466 109.25 243.613 108.516C243.759 107.782 244.12 107.107 244.65 106.578L257.625 93.5982C258.031 93.1906 258.26 92.6384 258.26 92.0627C258.26 91.487 258.031 90.9348 257.625 90.5272L244.579 77.4763C244.218 77.1153 243.932 76.6869 243.737 76.2153C243.542 75.7437 243.441 75.2383 243.441 74.7279C243.441 74.2175 243.542 73.712 243.737 73.2405C243.932 72.7689 244.218 72.3405 244.579 71.9795C245.306 71.2559 246.289 70.8483 247.314 70.845C248.34 70.8418 249.325 71.2433 250.057 71.9623L267.613 89.3055C267.959 89.6474 268.234 90.0546 268.421 90.5035C268.609 90.9524 268.705 91.4341 268.705 91.9207C268.705 92.4072 268.609 92.8889 268.421 93.3379C268.234 93.7868 267.959 94.194 267.613 94.5358L249.985 111.949C249.277 112.649 248.321 113.04 247.326 113.038Z" fill="#8D7DFF"/>
</g>
<defs>
<clipPath id="clip0_3_2">
<rect width="372" height="241" fill="white"/>
</clipPath>
</defs>
</svg>
