<svg width="294" height="245" viewBox="0 0 294 245" fill="none" xmlns="http://www.w3.org/2000/svg">
<g clip-path="url(#clip0_3_251)">
<path d="M277.739 78.3744C277.739 88.5717 275.321 96.9655 271.128 104.156C269.744 106.525 268.172 108.779 266.429 110.897C251.013 129.735 222.351 140.045 196.446 156.746C119.979 206.042 111.696 127.05 115.15 78.3744C116.543 58.7337 124.199 40.7427 136.362 26.9676C138.916 24.0704 141.676 21.3602 144.619 18.8579C158.427 7.10939 176.267 0 196.446 0C231.066 0 260.631 20.8614 272.352 50.2587C275.916 59.2046 277.744 68.7461 277.739 78.3744Z" fill="#9773FF"/>
<path d="M213.766 17.6633L136.362 26.9676C138.916 24.0704 141.676 21.3602 144.619 18.8579L213.766 17.6633Z" fill="#D0CDE1"/>
<path d="M271.128 104.156C269.744 106.525 268.172 108.779 266.429 110.897L200.126 102.93L271.128 104.156Z" fill="#D0CDE1"/>
<path d="M275.057 58.3423L162.688 43.7814L272.352 50.2587C273.406 52.9002 274.309 55.599 275.057 58.3423Z" fill="#D0CDE1"/>
<path d="M122.772 20.8764C122.772 21.0765 122.766 21.2737 122.749 21.4679C122.661 22.672 122.306 23.8413 121.708 24.8907C121.111 25.9401 120.287 26.8432 119.296 27.5341C118.305 28.2251 117.172 28.6865 115.98 28.8848C114.788 29.0831 113.567 29.0133 112.405 28.6804C111.244 28.3476 110.171 27.7601 109.265 26.9607C108.36 26.1613 107.644 25.1702 107.17 24.0596C106.697 22.949 106.477 21.7467 106.527 20.5405C106.577 19.3343 106.896 18.1544 107.46 17.0869C107.635 16.7523 107.835 16.4315 108.058 16.1272C109.03 14.7806 110.392 13.7642 111.96 13.215C113.528 12.6658 115.227 12.6103 116.827 13.0559C118.428 13.5015 119.854 14.4268 120.911 15.707C121.969 16.9872 122.609 18.5608 122.743 20.2154C122.764 20.4328 122.772 20.6532 122.772 20.8764Z" fill="#9970FF"/>
<path d="M122.772 20.8765C122.772 21.0766 122.766 21.2738 122.749 21.468L110.583 20.0067L122.743 20.2155C122.763 20.4329 122.772 20.6533 122.772 20.8765Z" fill="#D0CDE1"/>
<path d="M119.87 24.9675L108.615 26.3216C108.296 25.9658 108.008 25.5825 107.756 25.1763L119.87 24.9675Z" fill="#D0CDE1"/>
<path d="M116.678 15.9794L107.46 17.087C107.635 16.7524 107.835 16.4316 108.058 16.1272L116.678 15.9794Z" fill="#D0CDE1"/>
<path d="M234.138 167.044C234.045 167.221 233.947 167.392 233.84 167.556C233.198 168.578 232.335 169.444 231.315 170.092C230.295 170.739 229.143 171.15 227.944 171.297C226.744 171.443 225.527 171.32 224.381 170.937C223.235 170.554 222.189 169.92 221.319 169.082C220.449 168.244 219.777 167.223 219.353 166.093C218.928 164.962 218.761 163.752 218.863 162.549C218.966 161.346 219.336 160.181 219.946 159.139C220.557 158.097 221.392 157.204 222.391 156.526C222.703 156.312 223.03 156.122 223.37 155.958C224.86 155.224 226.54 154.963 228.183 155.213C229.825 155.462 231.352 156.209 232.557 157.352C233.762 158.495 234.587 159.98 234.92 161.606C235.254 163.233 235.08 164.922 234.423 166.446C234.339 166.648 234.243 166.847 234.138 167.044Z" fill="#9970FF"/>
<path d="M234.139 167.044C234.045 167.221 233.947 167.392 233.841 167.556L223.78 160.567L234.423 166.446C234.339 166.648 234.243 166.847 234.139 167.044Z" fill="#D0CDE1"/>
<path d="M229.655 169.299L219.079 165.224C218.963 164.76 218.889 164.287 218.857 163.81L229.655 169.299Z" fill="#D0CDE1"/>
<path d="M231.053 159.864L222.391 156.526C222.703 156.312 223.03 156.122 223.37 155.958L231.053 159.864Z" fill="#D0CDE1"/>
<path d="M291.693 27.0959C291.832 27.2391 291.966 27.3843 292.089 27.5355C292.868 28.4588 293.43 29.544 293.736 30.712C294.042 31.88 294.083 33.1014 293.856 34.2873C293.63 35.4731 293.141 36.5936 292.427 37.567C291.712 38.5404 290.789 39.3423 289.725 39.9143C288.66 40.4862 287.482 40.8138 286.275 40.8732C285.068 40.9326 283.863 40.7223 282.748 40.2576C281.632 39.7929 280.635 39.0856 279.828 38.187C279.021 37.2885 278.424 36.2214 278.082 35.0635C277.974 34.7022 277.892 34.3331 277.84 33.9595C277.594 32.3176 277.859 30.6401 278.598 29.1531C279.336 27.6661 280.514 26.4413 281.971 25.6438C283.428 24.8463 285.096 24.5145 286.748 24.6931C288.4 24.8718 289.957 25.5523 291.21 26.6428C291.376 26.7844 291.536 26.936 291.693 27.0959Z" fill="#9970FF"/>
<path d="M291.693 27.0958C291.832 27.2391 291.966 27.3843 292.089 27.5355L282.358 34.9755L291.21 26.6428C291.376 26.7843 291.537 26.936 291.693 27.0958Z" fill="#D0CDE1"/>
<path d="M292.474 32.0491L285.363 40.869C284.885 40.8371 284.412 40.7632 283.948 40.6483L292.474 32.0491Z" fill="#D0CDE1"/>
<path d="M283.907 27.8412L278.082 35.0635C277.974 34.7022 277.892 34.3331 277.84 33.9595L283.907 27.8412Z" fill="#D0CDE1"/>
<path d="M139.241 176.707C139.241 176.707 157.074 177.449 157.074 181.903C157.074 186.357 137.012 181.903 137.012 181.903L139.241 176.707Z" fill="#A0616A"/>
<path d="M112.492 245L79.056 242.773L77.57 224.957L70.1397 240.546L37.4465 236.092C38.1896 207.884 50.078 180.418 50.821 176.706C51.564 172.995 53.3399 157.659 53.3399 157.659C56.5869 150.777 73.6022 150.131 86.9395 150.755C92.4677 151.007 97.3717 151.482 100.396 151.824C102.394 152.047 103.576 152.21 103.576 152.21C108.903 157.696 112.336 165.171 114.446 173.522C122.055 203.608 112.492 245 112.492 245Z" fill="#2F2E41"/>
<path d="M75.3408 72.7816C85.5999 72.7816 93.9165 64.4729 93.9165 54.2235C93.9165 43.9742 85.5999 35.6655 75.3408 35.6655C65.0817 35.6655 56.7651 43.9742 56.7651 54.2235C56.7651 64.4729 65.0817 72.7816 75.3408 72.7816Z" fill="#A0616A"/>
<path d="M62.7094 58.6775C62.7094 58.6775 57.5082 81.6894 49.3349 88.3703C41.1616 95.0512 81.2851 88.3703 81.2851 88.3703C81.2851 88.3703 72.3688 73.5239 79.056 66.843C85.7433 60.1621 62.7094 58.6775 62.7094 58.6775Z" fill="#A0616A"/>
<path d="M100.604 153.695L88.2769 155.06L53.7931 158.891C53.7931 158.891 53.6296 158.453 53.3398 157.659C50.8358 150.837 38.7765 117.64 37.4465 107.671C35.9604 96.5359 51.564 83.1741 51.564 83.1741C51.564 83.1741 66.4245 80.2048 70.8827 80.2048C75.3408 80.2048 93.1735 86.8857 93.1735 86.8857L99.8235 146.65L100.396 151.824L100.604 153.695Z" fill="#D0CDE1"/>
<path opacity="0.15" d="M114.446 173.522L89.4583 158.891C89.4583 158.891 89.0199 157.466 88.2768 155.06C87.9053 153.858 87.4522 152.403 86.9394 150.755C84.0565 141.506 79.2194 126.244 75.3408 115.094C69.3966 98.0206 98.3746 145.529 98.3746 145.529L99.8235 146.65L100.396 151.824C102.394 152.047 103.576 152.21 103.576 152.21C108.903 157.696 112.336 165.171 114.446 173.522Z" fill="black"/>
<path d="M81.2851 88.3703C81.2851 88.3703 73.8548 98.0205 79.799 115.094C85.7433 132.167 93.9166 158.891 93.9166 158.891L137.012 184.13L142.956 176.706L102.833 145.529C102.833 145.529 101.347 89.1126 93.9166 86.8856C86.4863 84.6587 81.2851 88.3703 81.2851 88.3703Z" fill="#D0CDE1"/>
<path d="M44.5051 153.323C44.5051 153.323 54.9075 174.851 59.3657 172.624C63.8238 170.397 48.2203 148.127 48.2203 148.127L44.5051 153.323Z" fill="#A0616A"/>
<path d="M43.3907 94.309L4.01026 126.971C4.01026 126.971 -10.8503 137.364 16.6417 144.787C44.1337 152.21 46.3628 156.664 46.3628 156.664C46.3628 156.664 49.3349 147.014 53.05 148.498L21.0999 132.91L47.1058 117.321L43.3907 94.309Z" fill="#D0CDE1"/>
<path d="M27.5633 69.4555C29.6302 68.4329 34.1942 66.3691 38.0818 63.8827C37.8092 55.794 38.8062 48.4512 41.7247 44.559C43.3629 40.843 46.8029 37.1225 49.4972 34.1926C56.1136 26.9976 70.7439 22.9814 73.3388 26.5763C92.9649 26.9634 95.0311 42.3327 95.0311 42.3327C94.929 48.7612 88.2412 48.9646 82.3828 48.7304C82.9075 53.1191 81.5094 57.6792 77.4609 59.7016C69.719 63.5688 67.3964 68.5962 71.2674 72.0768C75.1383 75.5574 82.106 84.8388 72.8158 87.1591C63.5255 89.4794 62.3642 94.1202 65.0739 96.0538C67.7836 97.9875 58.8803 92.5733 58.8803 92.5733C58.8803 92.5733 57.332 101.855 49.203 99.5344C48.4745 99.3264 47.7464 98.7936 47.0306 97.9967C44.8352 100.407 42.8766 101.832 41.4005 101.839C32.9463 101.884 33.9601 92.5295 33.9601 92.5295C33.9601 92.5295 23.9255 95.345 27.0567 94.2129C30.1878 93.0807 30.322 88.2991 22.0019 83.5622C13.6819 78.8253 22.8964 71.7644 27.5633 69.4555Z" fill="#2F2E41"/>
<path d="M131.29 93.7039L131.156 93.6862L131.484 94.9348C131.795 96.6768 132.246 98.3908 132.834 100.06L142.477 136.682C142.784 137.851 143.427 138.905 144.326 139.714C145.224 140.523 146.34 141.052 147.535 141.237L167.201 144.276C168.472 144.473 169.773 144.27 170.925 143.696C172.076 143.122 173.02 142.205 173.628 141.072L192.316 106.199C192.9 105.233 193.434 104.237 193.915 103.216L194.549 102.032L194.45 102.019C196.431 97.3368 197.303 92.2611 196.998 87.1872C196.693 82.1132 195.219 77.1782 192.692 72.7668C190.164 68.3554 186.651 64.5868 182.426 61.7548C178.201 58.9228 173.378 57.1038 168.334 56.4398C163.289 55.7757 158.16 56.2845 153.345 57.9264C148.529 59.5683 144.159 62.299 140.574 65.9056C136.988 69.5122 134.285 73.8974 132.675 78.7192C131.065 83.541 130.591 88.6691 131.29 93.7039H131.29Z" fill="#3F3D56"/>
<path d="M168.407 146.669C168.061 146.669 167.715 146.643 167.373 146.59L146.817 143.412C145.512 143.211 144.293 142.633 143.312 141.749C142.331 140.865 141.629 139.715 141.293 138.438L131.214 100.158C130.598 98.406 130.124 96.6067 129.798 94.7782L129.543 93.1035C128.857 87.7535 129.426 82.3174 131.203 77.2244C132.981 72.1315 135.919 67.521 139.786 63.757C143.653 59.993 148.343 57.1785 153.485 55.5357C158.627 53.8929 164.082 53.4667 169.417 54.2908L169.328 54.8639C164.051 54.0515 158.656 54.4824 153.575 56.1223C148.494 57.7623 143.867 60.5659 140.063 64.3095C136.259 68.053 133.383 72.633 131.665 77.6839C129.948 82.7348 129.435 88.117 130.169 93.4009L130.365 94.6536C130.688 96.4667 131.158 98.2507 131.768 99.9885L141.855 138.291C142.162 139.458 142.803 140.51 143.701 141.318C144.598 142.126 145.712 142.655 146.906 142.839L167.461 146.016C168.731 146.211 170.03 146.008 171.179 145.435C172.329 144.862 173.272 143.947 173.879 142.817L174.391 143.09C173.81 144.171 172.947 145.075 171.894 145.705C170.84 146.335 169.635 146.668 168.407 146.669Z" fill="#D0CDE1"/>
<path d="M173.622 102.028L161.114 136.146L161.819 136.404L174.327 102.286L173.622 102.028Z" fill="#D0CDE1"/>
<path d="M153.2 98.8711L152.45 98.9041L154.046 135.203L154.796 135.17L153.2 98.8711Z" fill="#D0CDE1"/>
<path d="M166.67 164.024L140.33 159.953C140.134 159.921 139.959 159.814 139.842 159.654C139.725 159.493 139.677 159.293 139.707 159.098C139.738 158.902 139.844 158.726 140.004 158.608C140.164 158.491 140.364 158.441 140.56 158.47L166.899 162.541C166.997 162.556 167.091 162.589 167.176 162.64C167.261 162.691 167.335 162.759 167.393 162.838C167.452 162.918 167.494 163.008 167.518 163.104C167.542 163.2 167.546 163.3 167.531 163.398C167.516 163.496 167.481 163.589 167.43 163.674C167.378 163.758 167.311 163.831 167.23 163.89C167.15 163.948 167.06 163.99 166.963 164.013C166.867 164.036 166.767 164.039 166.67 164.024Z" fill="#3F3D56"/>
<path d="M167.345 158.436L141.006 154.365C140.908 154.35 140.814 154.317 140.729 154.266C140.644 154.215 140.57 154.147 140.512 154.068C140.453 153.988 140.41 153.898 140.387 153.802C140.363 153.706 140.359 153.606 140.374 153.508C140.389 153.41 140.424 153.317 140.475 153.232C140.527 153.148 140.594 153.075 140.674 153.016C140.754 152.958 140.845 152.916 140.941 152.893C141.038 152.87 141.137 152.867 141.235 152.882L167.575 156.953C167.672 156.968 167.766 157.001 167.851 157.052C167.936 157.103 168.01 157.171 168.069 157.25C168.127 157.33 168.17 157.42 168.193 157.516C168.217 157.612 168.221 157.712 168.206 157.81C168.191 157.907 168.157 158.001 168.105 158.086C168.054 158.17 167.986 158.243 167.906 158.302C167.826 158.36 167.735 158.402 167.639 158.425C167.543 158.448 167.443 158.451 167.345 158.436Z" fill="#3F3D56"/>
<path d="M168.02 152.848L141.681 148.777C141.485 148.745 141.309 148.638 141.193 148.477C141.076 148.317 141.028 148.117 141.058 147.921C141.088 147.726 141.195 147.55 141.355 147.432C141.514 147.315 141.714 147.265 141.91 147.294L168.25 151.365C168.446 151.397 168.621 151.504 168.738 151.664C168.855 151.825 168.903 152.025 168.873 152.22C168.842 152.416 168.736 152.592 168.576 152.71C168.416 152.827 168.216 152.877 168.02 152.848H168.02Z" fill="#3F3D56"/>
<path d="M152.681 167.275C157.906 168.083 162.591 165.828 163.147 162.24L144.227 159.316C143.672 162.904 147.456 166.468 152.681 167.275Z" fill="#3F3D56"/>
<path d="M162.149 94.8401C161.025 94.6666 160.095 93.7791 159.586 93.1843C159.419 92.9892 159.256 92.787 159.093 92.5842C158.499 91.846 157.939 91.1488 157.158 90.7852C155.435 89.9821 153.405 91.1038 151.647 92.3073L151.222 91.6888C153.155 90.3651 155.408 89.1425 157.475 90.1053C158.414 90.5428 159.057 91.3418 159.678 92.1143C159.836 92.3111 159.994 92.5073 160.156 92.6965C160.686 93.3148 161.743 94.3169 162.876 94.0858C163.353 93.9468 163.797 93.712 164.18 93.3958C164.472 93.178 164.781 92.9834 165.104 92.8137C165.758 92.5004 166.49 92.3874 167.208 92.4888C167.926 92.5902 168.598 92.9015 169.14 93.3836C169.333 93.5663 169.516 93.7595 169.687 93.9623C170.025 94.3469 170.344 94.7099 170.759 94.8419C171.373 95.0379 172.021 94.6875 172.708 94.3173C173.417 93.9352 174.15 93.54 174.981 93.6375C175.008 93.6407 175.035 93.6444 175.062 93.6485C176.541 93.8771 177.222 95.511 177.608 96.7304L176.892 96.9562C176.368 95.2987 175.73 94.4744 174.893 94.3825C174.298 94.3125 173.699 94.6355 173.065 94.9772C172.27 95.4059 171.448 95.8489 170.531 95.5566C169.917 95.3614 169.513 94.9017 169.123 94.4571C168.969 94.2751 168.806 94.1015 168.633 93.9372C168.202 93.5599 167.67 93.3163 167.102 93.2361C166.535 93.1559 165.956 93.2427 165.437 93.4858C165.15 93.6385 164.874 93.8131 164.614 94.0081C164.148 94.3877 163.607 94.6646 163.026 94.8206C162.737 94.8794 162.44 94.886 162.149 94.8401Z" fill="#D0CDE1"/>
</g>
<defs>
<clipPath id="clip0_3_251">
<rect width="294" height="245" fill="white"/>
</clipPath>
</defs>
</svg>
